<?xml version="1.0" encoding="UTF-8" standalone="no"?>
<!-- Svg Vector Icons : http://www.onlinewebfonts.com/icon -->

<svg
   version="1.1"
   x="0px"
   y="0px"
   viewBox="0 0 1000 1000"
   enable-background="new 0 0 1000 1000"
   xml:space="preserve"
   id="svg427"
   sodipodi:docname="paperMEdium.svg"
   inkscape:export-filename="paper(copy)edit.svg"
   inkscape:export-xdpi="96"
   inkscape:export-ydpi="96"
   inkscape:version="1.2.2 (b0a8486, 2022-12-01)"
   xmlns:inkscape="http://www.inkscape.org/namespaces/inkscape"
   xmlns:sodipodi="http://sodipodi.sourceforge.net/DTD/sodipodi-0.dtd"
   xmlns="http://www.w3.org/2000/svg"
   xmlns:svg="http://www.w3.org/2000/svg"><defs
   id="defs431"><inkscape:path-effect
     effect="fillet_chamfer"
     id="path-effect4507"
     is_visible="true"
     lpeversion="1"
     nodesatellites_param="F,0,0,1,0,0,0,1 @ F,0,0,1,0,7,0,1"
     unit="px"
     method="auto"
     mode="F"
     radius="7"
     chamfer_steps="1"
     flexible="false"
     use_knot_distance="true"
     apply_no_radius="true"
     apply_with_radius="true"
     only_selected="false"
     hide_knots="false" /><inkscape:path-effect
     effect="fillet_chamfer"
     id="path-effect4505"
     is_visible="true"
     lpeversion="1"
     nodesatellites_param="F,0,0,1,0,0,0,1 @ F,0,0,1,0,7,0,1"
     unit="px"
     method="auto"
     mode="F"
     radius="7"
     chamfer_steps="1"
     flexible="false"
     use_knot_distance="true"
     apply_no_radius="true"
     apply_with_radius="true"
     only_selected="false"
     hide_knots="false" /><inkscape:path-effect
     effect="fillet_chamfer"
     id="path-effect4503"
     is_visible="true"
     lpeversion="1"
     nodesatellites_param="F,0,0,1,0,0,0,1 @ F,0,0,1,0,7,0,1"
     unit="px"
     method="auto"
     mode="F"
     radius="7"
     chamfer_steps="1"
     flexible="false"
     use_knot_distance="true"
     apply_no_radius="true"
     apply_with_radius="true"
     only_selected="false"
     hide_knots="false" /><inkscape:path-effect
     effect="fillet_chamfer"
     id="path-effect4501"
     is_visible="true"
     lpeversion="1"
     nodesatellites_param="F,0,0,1,0,0,0,1 @ F,0,0,1,0,7,0,1 @ F,0,0,1,0,7,0,1 @ F,0,0,1,0,0,0,1"
     unit="px"
     method="auto"
     mode="F"
     radius="7"
     chamfer_steps="1"
     flexible="false"
     use_knot_distance="true"
     apply_no_radius="true"
     apply_with_radius="true"
     only_selected="false"
     hide_knots="false" /><inkscape:path-effect
     effect="fillet_chamfer"
     id="path-effect4499"
     is_visible="true"
     lpeversion="1"
     nodesatellites_param="F,0,0,1,0,7,0,1 @ F,0,0,1,0,7,0,1 @ F,0,0,1,0,7,0,1 @ F,0,0,1,0,7,0,1"
     unit="px"
     method="auto"
     mode="F"
     radius="7"
     chamfer_steps="1"
     flexible="false"
     use_knot_distance="true"
     apply_no_radius="true"
     apply_with_radius="true"
     only_selected="false"
     hide_knots="false" /></defs><sodipodi:namedview
   id="namedview429"
   pagecolor="#ffffff"
   bordercolor="#000000"
   borderopacity="0.25"
   inkscape:showpageshadow="2"
   inkscape:pageopacity="0.0"
   inkscape:pagecheckerboard="0"
   inkscape:deskcolor="#d1d1d1"
   showgrid="false"
   inkscape:zoom="0.58996835"
   inkscape:cx="583.92963"
   inkscape:cy="606.81221"
   inkscape:window-width="1920"
   inkscape:window-height="951"
   inkscape:window-x="1280"
   inkscape:window-y="32"
   inkscape:window-maximized="1"
   inkscape:current-layer="g425" />
<metadata
   id="metadata413"> Svg Vector Icons : http://www.onlinewebfonts.com/icon </metadata>
<g
   id="g425"><g
     transform="matrix(0.1,0,0,-0.1,0,511)"
     id="g423"
     style="display:none"><path
   d="M 3433.1,4272.3 C 3328.2,4208.9 3282.3,4115 3264.9,3935.9 3077,1858.2 2731.8,151.9 2301.4,-826.8 c -52.4,-120.2 -93.9,-220.7 -89.6,-222.9 2.2,-2.2 163.9,-10.9 358.3,-19.7 329.9,-15.3 353.9,-13.1 373.6,24 48.1,91.8 227.2,613.9 319,928.5 270.9,939.4 528.7,2398.8 635.8,3587.3 l 15.3,168.2 h 102.7 c 201,2.2 4780.2,-131.1 4981.2,-144.2 l 205.4,-13.1 -15.3,-168.2 c -26.2,-308 -124.5,-1101.1 -201,-1640.7 -310.2,-2197.8 -773.4,-3926 -1249.7,-4666.6 -135.5,-209.7 -244.7,-319 -377.9,-378 -94,-41.5 -109.2,-43.7 -207.6,-13.1 -303.7,89.6 -657.6,548.4 -1125.1,1452.9 -100.5,190.1 -168.2,233.8 -397.6,249.1 -205.5,13.1 -4183.9,102.7 -4869.9,107.1 -423.8,4.4 -454.4,2.2 -511.2,-41.5 -177,-131.1 -190.1,-262.2 -65.5,-631.4 174.8,-522.2 443.5,-970 762.5,-1269.3 305.9,-288.4 644.5,-445.7 1042.1,-487.2 113.6,-13.1 939.4,-32.8 1835.2,-43.7 895.7,-13.1 2036.2,-28.4 2534.3,-37.1 795.3,-10.9 926.3,-8.8 1064,24 952.5,218.5 1686.6,1996.9 2189.1,5308.9 118,769 286.2,2254.7 290.6,2545.2 2.2,148.6 -50.3,249.1 -159.5,314.6 -69.9,41.5 -225,48.1 -2838,124.5 -3327.5,100.5 -3373.4,100.5 -3469.5,41.5 z M 1997.7,-2271 c 336.5,-6.5 1212.5,-26.2 1944.4,-43.7 734.1,-17.5 1378.6,-32.8 1435.4,-32.8 h 102.7 l 137.6,-255.6 c 76.5,-142 218.5,-377.9 319,-528.7 98.3,-148.6 179.2,-270.9 179.2,-275.3 0,-17.5 -4037.4,59 -4140.1,78.7 -373.6,69.9 -749.4,408.6 -991.9,887 -104.9,211.9 -107.1,209.7 168.2,194.5 128.9,-6.6 509.1,-17.5 845.5,-24.1 z"
   id="path415" />zz<path
   d="m 4695.9,2354.1 c -93.9,-94 -80.8,-240.3 26.2,-308.1 34.9,-21.8 417.3,-41.5 1479.1,-80.8 1837.3,-65.5 1739,-65.5 1804.6,2.2 74.3,72.1 76.5,209.7 4.4,281.8 -59,59 -15.3,56.8 -1642.9,111.4 -515.6,17.5 -1088,37.1 -1271.5,45.9 l -332.1,13.1 z"
   id="path417" /><path
   d="m 4481.8,984.3 c -89.6,-76.5 -98.3,-203.2 -19.7,-281.8 65.5,-63.4 91.8,-65.5 1479.1,-111.4 559.3,-17.5 1140.4,-39.3 1293.4,-45.9 l 277.5,-15.3 67.7,67.7 c 85.2,85.2 89.6,201 13.1,275.3 -65.5,67.7 -91.7,67.7 -1400.4,111.4 -563.7,17.5 -1164.5,39.3 -1332.7,45.9 l -305.9,15.3 z"
   id="path419" /><path
   d="m 4151.9,-368 c -120.2,-67.7 -142,-198.8 -48.1,-301.5 l 63.4,-69.9 876.1,-30.6 c 812.7,-28.4 880.4,-28.4 930.7,4.4 115.8,76.5 120.2,240.3 10.9,321.2 -48.1,35 -131.1,43.7 -677.3,63.3 -343,10.9 -729.7,26.2 -863,32.8 -179.1,8.6 -253.4,2.1 -292.7,-19.7 z"
   id="path421" /></g><g
     inkscape:groupmode="layer"
     id="layer1"
     inkscape:label="Layer 1"
     style="display:inline"><path
       style="fill:none;stroke:#000000;stroke-width:28;stroke-dasharray:none;stroke-opacity:1"
       d="m 57.498524,706.6409 c 160.657096,1.83613 457.062616,5.2237 506.246206,5.78581 3.86574,0.0442 8.60096,2.77398 10.59114,6.08836 78.30899,130.41303 119.13167,159.65571 125.83871,165.97339 1.80432,1.69958 -7.33401,1.51567 -11.19918,1.43575 L 195.3452,875.71788 c -3.86516,-0.0799 -10.16515,-0.27102 -13.89672,-1.25312 C 139.83149,863.51179 62.702635,775.39218 51.485668,713.48922 c -0.689127,-3.80308 2.147115,-6.8925 6.012856,-6.84832 z"
       id="path847"
       sodipodi:nodetypes="ccscc"
       inkscape:path-effect="#path-effect4499"
       inkscape:original-d="m 50.498981,706.5609 c 173.415099,1.98194 520.245289,5.94581 520.245289,5.94581 106.55334,179.0499 145.58603,173.98309 125.22964,173.5622 L 188.3467,875.57318 C 147.64208,873.81747 57.151653,772.07831 50.498981,706.5609 Z" /><path
       style="fill:none;stroke:#000000;stroke-width:28;stroke-dasharray:none;stroke-opacity:1"
       d="m 681.52603,885.19932 c 217.4564,24.30693 278.01064,-656.16042 273.4555,-749.59652 -0.18817,-3.85985 -3.74321,-7.05742 -7.60772,-7.16465 L 367.43025,112.34678 c -3.86451,-0.10723 -7.11727,2.93758 -7.2854,6.79991 -8.48188,194.85589 -53.6153,356.80789 -95.55634,500.47215"
       id="path4442"
       sodipodi:nodetypes="cccc"
       inkscape:path-effect="#path-effect4501"
       inkscape:original-d="M 681.52603,885.19932 C 905.73897,910.26148 963.14814,186.07318 954.37112,128.6323 L 360.43294,112.15263 c -7.69169,197.9798 -53.4026,362.08654 -95.84443,507.46621" /></g><path
     style="fill:none;stroke:#000000;stroke-width:28;stroke-dasharray:none;stroke-opacity:1;stroke-linecap:round"
     d="m 481.36604,290.01163 305.21195,10.11259"
     id="path4444"
     inkscape:path-effect="#path-effect4503"
     inkscape:original-d="m 481.36604,290.01163 305.21195,10.11259" /><path
     style="fill:none;stroke:#000000;stroke-width:28;stroke-dasharray:none;stroke-opacity:1;stroke-linecap:round"
     d="m 462.38818,428.3757 280.19597,9.86264"
     id="path4446"
     inkscape:path-effect="#path-effect4507"
     inkscape:original-d="m 462.38818,428.3757 280.19597,9.86264" /><path
     style="fill:none;stroke:#000000;stroke-width:28;stroke-dasharray:none;stroke-opacity:1;stroke-linecap:round"
     d="m 427.61803,566.85045 154.99146,3.47887"
     id="path4448"
     sodipodi:nodetypes="cc"
     inkscape:path-effect="#path-effect4505"
     inkscape:original-d="m 427.61803,566.85045 154.99146,3.47887" /></g>
</svg>
