<?xml version="1.0" encoding="utf-8"?>
<!-- Svg Vector Icons : http://www.onlinewebfonts.com/icon -->
<!DOCTYPE svg PUBLIC "-//W3C//DTD SVG 1.1//EN" "http://www.w3.org/Graphics/SVG/1.1/DTD/svg11.dtd">
<svg version="1.1" xmlns="http://www.w3.org/2000/svg" xmlns:xlink="http://www.w3.org/1999/xlink" x="0px" y="0px" viewBox="0 0 1000 1000" enable-background="new 0 0 1000 1000" xml:space="preserve">
<metadata> Svg Vector Icons : http://www.onlinewebfonts.com/icon </metadata>
<g><g transform="translate(0.000000,511.000000) scale(0.100000,-0.100000)"><path d="M3433.1,4272.3c-104.9-63.4-150.8-157.3-168.2-336.4c-187.9-2077.7-533.1-3784-963.5-4762.7c-52.4-120.2-93.9-220.7-89.6-222.9c2.2-2.2,163.9-10.9,358.3-19.7c329.9-15.3,353.9-13.1,373.6,24c48.1,91.8,227.2,613.9,319,928.5c270.9,939.4,528.7,2398.8,635.8,3587.3l15.3,168.2h102.7c201,2.2,4780.2-131.1,4981.2-144.2l205.4-13.1l-15.3-168.2c-26.2-308-124.5-1101.1-201-1640.7c-310.2-2197.8-773.4-3926-1249.7-4666.6c-135.5-209.7-244.7-319-377.9-378c-94-41.5-109.2-43.7-207.6-13.1c-303.7,89.6-657.6,548.4-1125.1,1452.9c-100.5,190.1-168.2,233.8-397.6,249.1C5423.4-1670.2,1445-1580.6,759-1576.2c-423.8,4.4-454.4,2.2-511.2-41.5c-177-131.1-190.1-262.2-65.5-631.4c174.8-522.2,443.5-970,762.5-1269.3c305.9-288.4,644.5-445.7,1042.1-487.2c113.6-13.1,939.4-32.8,1835.2-43.7c895.7-13.1,2036.2-28.4,2534.3-37.1c795.3-10.9,926.3-8.8,1064,24c952.5,218.5,1686.6,1996.9,2189.1,5308.9c118,769,286.2,2254.7,290.6,2545.2c2.2,148.6-50.3,249.1-159.5,314.6c-69.9,41.5-225,48.1-2838,124.5C3575.1,4331.3,3529.2,4331.3,3433.1,4272.3z M1997.7-2271c336.5-6.5,1212.5-26.2,1944.4-43.7c734.1-17.5,1378.6-32.8,1435.4-32.8h102.7l137.6-255.6c76.5-142,218.5-377.9,319-528.7c98.3-148.6,179.2-270.9,179.2-275.3c0-17.5-4037.4,59-4140.1,78.7c-373.6,69.9-749.4,408.6-991.9,887c-104.9,211.9-107.1,209.7,168.2,194.5C1281.1-2253.5,1661.3-2264.4,1997.7-2271z"/><path d="M4695.9,2354.1c-93.9-94-80.8-240.3,26.2-308.1c34.9-21.8,417.3-41.5,1479.1-80.8c1837.3-65.5,1739-65.5,1804.6,2.2c74.3,72.1,76.5,209.7,4.4,281.8c-59,59-15.3,56.8-1642.9,111.4c-515.6,17.5-1088,37.1-1271.5,45.9l-332.1,13.1L4695.9,2354.1z"/><path d="M4481.8,984.3c-89.6-76.5-98.3-203.2-19.7-281.8c65.5-63.4,91.8-65.5,1479.1-111.4c559.3-17.5,1140.4-39.3,1293.4-45.9l277.5-15.3l67.7,67.7c85.2,85.2,89.6,201,13.1,275.3c-65.5,67.7-91.7,67.7-1400.4,111.4c-563.7,17.5-1164.5,39.3-1332.7,45.9l-305.9,15.3L4481.8,984.3z"/><path d="M4151.9-368c-120.2-67.7-142-198.8-48.1-301.5l63.4-69.9l876.1-30.6c812.7-28.4,880.4-28.4,930.7,4.4c115.8,76.5,120.2,240.3,10.9,321.2c-48.1,35-131.1,43.7-677.3,63.3c-343,10.9-729.7,26.2-863,32.8C4265.5-339.7,4191.2-346.2,4151.9-368z"/></g></g>
</svg>