<?xml version="1.0" encoding="utf-8"?>
<!-- Svg Vector Icons : http://www.onlinewebfonts.com/icon -->
<!DOCTYPE svg PUBLIC "-//W3C//DTD SVG 1.1//EN" "http://www.w3.org/Graphics/SVG/1.1/DTD/svg11.dtd">
<svg version="1.1" xmlns="http://www.w3.org/2000/svg" xmlns:xlink="http://www.w3.org/1999/xlink" x="0px" y="0px" viewBox="0 0 1000 1000" enable-background="new 0 0 1000 1000" xml:space="preserve">
<metadata> Svg Vector Icons : http://www.onlinewebfonts.com/icon </metadata>
<g><g transform="translate(0.000000,511.000000) scale(0.100000,-0.100000)"><path d="M4796.8,3345.6c-529.7-103.1-980-196.4-1001.8-208.3c-21.8-11.9-484-535.6-1027.6-1164.5C2223.8,1342,1741.7,786.5,1696.1,734.9l-83.3-93.2l-317.4,57.5c-174.6,33.7-339.2,59.5-367,59.5c-121,0-109.1,47.6-496-1926.3C55.5-3101.8,59.5-3078,152.7-3127.6c23.8-13.9,1208.1-41.7,3378.4-81.3c1835-33.7,3995.4-73.4,4796.9-87.3c1569.2-29.8,1513.7-31.7,1567.2,67.5c17.9,31.7-11.9,263.9-128.9,1027.6c-83.3,541.6-176.6,1156.6-208.3,1362.9c-51.6,333.3-63.5,380.9-105.1,418.6c-39.7,33.7-113.1,47.6-456.3,87.3c-232.1,25.8-410.7,55.6-410.7,67.5c0,9.9,81.3,355.1,178.5,765.8c99.2,410.6,178.5,763.8,178.5,785.6s-216.3,355.1-482.1,741.9l-482.1,704.3l-1089.1,400.7c-601.1,222.2-1099,400.7-1110.9,400.7C5768.9,3532.1,5326.5,3448.8,4796.8,3345.6z M6798.5,2837.8l980-363l422.5-617l422.6-617l-178.5-740c-97.2-408.7-178.5-744-182.5-745.9c-2,0-436.4,47.6-966.1,111.1c-759.8,89.3-974,109.1-1015.7,91.3c-29.8-11.9-273.8-208.3-545.5-438.4c-269.8-228.1-513.8-436.4-543.6-460.2L5138-987l-172.6,426.5c-95.2,232.1-190.4,438.4-210.3,458.3c-19.8,17.8-333.3,121-696.3,228.1c-609,180.5-714.2,206.3-1335.1,317.4c-371,65.5-688.4,125-708.2,132.9c-23.8,11.9,176.6,253.9,940.3,1134.7c533.7,617,978,1128.8,986,1136.7c23.8,23.8,1789.4,369,1837,359.1C5800.6,3202.8,6258.9,3036.2,6798.5,2837.8z M2200,223.1C3275.2,30.7,3312.9,22.7,3918-155.8l618.9-182.5L4705.5-747c93.2-224.2,333.3-807.4,533.6-1295.4l365-888.8H5503c-259.9-2-5062.7,87.3-5070.6,93.3c-7.9,7.9,613,3217.7,628.9,3245.5c4,7.9,15.9,13.9,23.8,13.9C1095,421.5,1596.9,332.2,2200,223.1z M8097.9-540.7c611-71.4,1112.9-130.9,1114.9-134.9c9.9-7.9,363.1-2323.1,357.1-2331c-4-2-499.9,5.9-1105,17.8c-605.1,9.9-1418.4,25.8-1809.2,33.7l-710.2,13.9l-327.3,793.5c-180.5,436.4-331.3,811.4-335.3,833.2c-7.9,31.8,103.2,132.9,547.5,505.9l555.5,468.2l301.5-35.7C6854-395.8,7488.8-469.2,8097.9-540.7z"/><path d="M6949.2,2117.7c-27.8-25.8-49.6-69.4-49.6-97.2c0-49.6,630.8-1023.7,700.3-1079.2c15.9-13.9,59.5-27.8,95.2-27.8c73.4-2,156.7,77.4,156.7,148.8c0,49.6-666.6,1059.4-716.1,1087.1C7074.2,2181.1,6998.8,2169.2,6949.2,2117.7z"/><path d="M8397.4-1453.2c-65.5-63.5-63.5-103.1,21.8-424.5c75.4-289.6,117.1-359.1,218.2-359.1c61.5,0,146.8,83.3,146.8,144.8c0,25.8-31.7,170.6-71.4,323.4c-53.6,216.2-81.3,285.7-119,321.4C8528.3-1389.7,8456.9-1391.7,8397.4-1453.2z"/></g></g>
</svg>