<?xml version="1.0" encoding="UTF-8" standalone="no"?>
<!-- Svg Vector Icons : http://www.onlinewebfonts.com/icon -->

<svg
   version="1.1"
   x="0px"
   y="0px"
   viewBox="0 0 1000 1000"
   enable-background="new 0 0 1000 1000"
   xml:space="preserve"
   id="svg2959"
   sodipodi:docname="scissorswhite.svg"
   inkscape:version="1.2.2 (b0a8486, 2022-12-01)"
   xmlns:inkscape="http://www.inkscape.org/namespaces/inkscape"
   xmlns:sodipodi="http://sodipodi.sourceforge.net/DTD/sodipodi-0.dtd"
   xmlns="http://www.w3.org/2000/svg"
   xmlns:svg="http://www.w3.org/2000/svg"><defs
   id="defs2963" /><sodipodi:namedview
   id="namedview2961"
   pagecolor="#ffffff"
   bordercolor="#000000"
   borderopacity="0.25"
   inkscape:showpageshadow="2"
   inkscape:pageopacity="0.0"
   inkscape:pagecheckerboard="0"
   inkscape:deskcolor="#d1d1d1"
   showgrid="false"
   inkscape:zoom="0.28637825"
   inkscape:cx="644.25284"
   inkscape:cy="701.86895"
   inkscape:window-width="1280"
   inkscape:window-height="987"
   inkscape:window-x="3200"
   inkscape:window-y="56"
   inkscape:window-maximized="1"
   inkscape:current-layer="svg2959" />
<metadata
   id="metadata2953"> Svg Vector Icons : http://www.onlinewebfonts.com/icon </metadata>
<g
   id="g2957"
   style="fill:#ffffff;fill-opacity:1"><path
     d="M790.9,898.1c59.1,0,107.2-48.1,107.2-107.2c0-59.1-48.1-107.2-107.2-107.2s-107.2,48.1-107.2,107.2C683.8,850,731.8,898.1,790.9,898.1z M790.9,714.4c42.2,0,76.6,34.3,76.6,76.6c0,42.2-34.4,76.6-76.6,76.6s-76.6-34.3-76.6-76.6C714.4,748.7,748.7,714.4,790.9,714.4z M583.7,743.5c0,44.4,10.9,100.2,25.6,131.7c30,76.2,89.1,114.8,175.5,114.8C897.9,990,990,897.9,990,784.8c0-110-86.3-189.9-205.2-189.9c-135.1,0-179.2-72.6-181-75.6c-0.6-1-1.3-2-2.1-2.9L131.4,14.8c-4.3-4.6-11-6-16.8-3.8c-5.8,2.3-9.7,8-9.7,14.2c0,295.6,197.1,450.6,341,563.8C522.9,649.7,583.7,697.5,583.7,743.5L583.7,743.5z M136.9,65.5l441.4,470.8c8.2,13,62.6,89.3,206.5,89.3c101.2,0,174.6,67,174.6,159.2c0,96.3-78.3,174.6-174.6,174.6c-73.7,0-121.8-31.2-147.4-96.3c-11.2-24.1-23.1-74.2-23.1-119.6c0-60.9-65.9-112.7-149.4-178.4C332.7,461.1,154,320.5,136.9,65.5z M101.9,790.9c0,59.1,48.1,107.2,107.2,107.2S316.3,850,316.3,790.9c0-59.1-48.1-107.2-107.2-107.2S101.9,731.8,101.9,790.9z M285.6,790.9c0,42.2-34.4,76.6-76.6,76.6c-42.2,0-76.6-34.3-76.6-76.6c0-42.2,34.4-76.6,76.6-76.6C251.3,714.4,285.6,748.7,285.6,790.9z M641.9,483.8c-6.2,5.7-6.7,15.4-1,21.6c3,3.3,7.2,5,11.3,5c3.7,0,7.4-1.3,10.3-4C770.8,407.8,895.1,264,895.1,25.3c0-6.3-3.8-11.9-9.7-14.2c-5.8-2.2-12.5-0.8-16.8,3.8L534.1,371.5c-5.8,6.2-5.5,15.9,0.7,21.6c6.2,5.8,15.8,5.5,21.7-0.7L863.2,65.4C850.1,268.4,739.3,395.1,641.9,483.8L641.9,483.8z M344.1,588.7c7.9-3.1,11.8-11.9,8.8-19.8c-3-7.9-11.9-11.9-19.8-8.7c-6.5,2.5-13.4,5.6-20.9,8.9c-25.8,11.5-58,25.8-97,25.8C96.3,594.9,10,674.8,10,784.8C10,897.9,102.1,990,215.2,990c86.5,0,145.5-38.6,175.1-114c15.5-33.2,17.8-106,17.8-146.3c0-8.2,23.3-25.8,37.3-36.3c12.9-9.7,26.2-19.7,35.4-30.1c5.6-6.3,5-16-1.3-21.6c-6.3-5.6-16-5-21.6,1.3c-7.2,8.1-19.2,17.2-30.9,26c-25.4,19.2-49.5,37.2-49.5,60.8c0,63.5-5.6,113.3-15.3,134.3c-25.3,64.2-73.4,95.4-147,95.4c-96.3,0-174.6-78.3-174.6-174.6c0-92.3,73.4-159.2,174.6-159.2c45.4,0,82.4-16.5,109.4-28.5C331.6,593.9,338.1,591,344.1,588.7L344.1,588.7z M475.3,530.1c0,13.6,11.1,24.7,24.7,24.7c13.6,0,24.7-11.1,24.7-24.7s-11.1-24.7-24.7-24.7C486.4,505.4,475.3,516.5,475.3,530.1z"
     id="path2955"
     style="fill:#ffffff;fill-opacity:1" /></g>
</svg>
